<?xml version="1.0" standalone="no"?>
<!DOCTYPE svg PUBLIC "-//W3C//DTD SVG 20010904//EN"
 "http://www.w3.org/TR/2001/REC-SVG-20010904/DTD/svg10.dtd">
<svg version="1.0" xmlns="http://www.w3.org/2000/svg"
 width="500.000000pt" height="500.000000pt" viewBox="0 0 500.000000 500.000000"
 preserveAspectRatio="xMidYMid meet">

<g transform="translate(0.000000,500.000000) scale(0.100000,-0.100000)"
fill="#000000" stroke="none">
<path d="M1860 3815 c0 -24 2 -25 70 -25 63 0 70 -2 70 -20 0 -15 7 -20 25
-20 18 0 25 5 25 20 0 15 -7 20 -25 20 -20 0 -25 5 -25 25 0 24 -2 25 -70 25
-68 0 -70 -1 -70 -25z"/>
<path d="M2960 3790 l0 -50 -50 0 -50 0 0 -70 c0 -68 -1 -70 -25 -70 -24 0
-25 -2 -25 -70 l0 -70 -50 0 c-47 0 -50 2 -50 25 0 26 -1 26 -67 23 l-68 -3
-3 -47 -3 -48 -70 0 -69 0 0 50 0 50 -70 0 c-68 0 -70 -1 -70 -25 0 -23 -3
-25 -50 -25 l-50 0 0 70 c0 68 -1 70 -25 70 -23 0 -25 3 -25 51 0 45 -2 50
-20 47 -12 -2 -21 -6 -20 -10 0 -5 0 -35 0 -68 0 -53 2 -60 20 -60 19 0 20 -7
20 -121 0 -111 -2 -121 -19 -126 -11 -3 -21 -13 -24 -24 -3 -11 -14 -19 -26
-19 -20 0 -21 -4 -21 -170 0 -159 1 -170 19 -170 15 0 19 11 25 77 3 42 6 96
6 120 0 36 3 43 20 43 17 0 20 7 20 50 0 47 2 50 25 50 18 0 25 5 25 20 0 15
7 20 25 20 20 0 25 5 25 25 0 23 4 25 45 25 41 0 45 2 45 25 0 20 5 25 25 25
l25 0 0 -190 c0 -179 -1 -190 -19 -190 -24 0 -31 -35 -31 -151 l0 -89 -45 0
-45 0 0 50 c0 47 -2 50 -25 50 -23 0 -25 -3 -25 -50 0 -47 -2 -50 -25 -50 -23
0 -25 -4 -25 -45 0 -41 2 -45 25 -45 23 0 25 -3 25 -50 0 -47 2 -50 25 -50
l25 0 0 -165 0 -165 -25 0 c-18 0 -25 5 -25 19 0 13 -8 21 -22 23 -20 3 -23
10 -26 51 -3 45 -2 47 22 47 21 0 26 5 26 25 0 23 -3 25 -51 25 l-50 0 1 48
c1 26 1 111 1 190 -1 135 -2 142 -21 142 -15 0 -20 7 -20 25 0 20 -5 25 -25
25 -20 0 -25 -5 -25 -25 0 -20 -5 -25 -25 -25 l-25 0 0 165 c0 156 -1 165 -19
165 -28 0 -33 -57 -29 -360 l3 -255 48 -3 c39 -3 47 -6 47 -23 0 -14 7 -19 25
-19 23 0 25 -3 25 -50 l0 -50 -190 0 -190 0 0 -25 c0 -20 -5 -25 -25 -25 -20
0 -25 -5 -25 -25 0 -18 -5 -25 -20 -25 -11 0 -20 -6 -20 -14 0 -7 -3 -28 -6
-45 l-6 -31 266 0 266 0 0 25 c0 18 5 25 20 25 15 0 20 -7 20 -25 0 -23 3 -25
50 -25 47 0 50 -2 50 -25 l0 -25 -171 0 -170 0 3 -22 c2 -15 11 -24 26 -26 14
-2 22 -10 22 -23 0 -17 8 -19 69 -19 l70 0 3 -47 3 -48 98 -3 97 -3 0 -44 0
-45 45 0 c41 0 45 -2 45 -25 l0 -25 120 0 120 0 0 25 c0 23 3 25 50 25 l50 0
0 45 0 44 93 3 92 3 3 48 3 47 70 0 c61 0 69 2 69 19 0 13 8 21 23 23 14 2 23
11 25 25 3 22 3 23 -165 25 -166 3 -168 3 -171 26 -3 18 1 22 22 22 21 0 26 5
26 26 0 21 4 25 23 22 14 -2 23 -11 25 -25 l3 -23 285 0 284 0 0 45 c0 41 -2
45 -25 45 -20 0 -25 5 -25 25 0 20 -5 25 -25 25 -20 0 -25 5 -25 25 l0 25
-185 0 -185 0 0 70 0 69 68 3 67 3 3 308 2 307 -25 0 -25 0 0 -165 0 -165 -25
0 c-20 0 -25 5 -25 25 0 20 -5 25 -25 25 -20 0 -25 -5 -25 -25 0 -19 -5 -25
-23 -25 l-22 0 4 -190 3 -190 -51 0 c-48 0 -51 -2 -51 -25 0 -20 5 -25 26 -25
24 0 25 -2 22 -47 -3 -41 -6 -48 -25 -51 -15 -2 -23 -10 -23 -23 0 -14 -7 -19
-25 -19 l-25 0 0 190 0 190 25 0 c20 0 25 5 25 25 0 20 5 25 25 25 23 0 25 4
25 45 0 41 -2 45 -25 45 -23 0 -25 3 -25 50 0 47 -2 50 -25 50 -23 0 -25 -3
-25 -50 l0 -50 -45 0 -45 0 0 120 0 120 -25 0 -25 0 0 190 0 190 25 0 c20 0
25 -5 25 -25 0 -23 4 -25 44 -25 39 0 45 -3 48 -22 2 -15 11 -24 26 -26 14 -2
22 -10 22 -23 0 -14 7 -19 25 -19 23 0 25 -3 25 -50 0 -43 3 -50 20 -50 17 0
20 -7 20 -43 0 -24 3 -79 7 -121 5 -71 8 -77 27 -74 20 3 21 9 24 171 l2 167
-26 0 c-17 0 -28 6 -31 19 -3 11 -13 21 -24 24 -17 5 -19 15 -19 126 0 113 1
121 20 121 17 0 19 8 22 68 3 60 5 67 24 70 12 2 24 12 27 23 3 11 15 23 26
26 12 3 21 14 21 24 0 17 8 19 70 19 68 0 70 1 70 25 0 25 -1 25 -90 25 l-90
0 0 -50z m-432 -522 c3 -46 2 -48 -22 -48 -24 0 -26 3 -26 51 0 47 2 50 23 47
19 -3 22 -10 25 -50z m44 -260 c2 -15 11 -24 26 -26 21 -3 22 -7 22 -98 l0
-95 -117 3 -118 3 -3 93 -3 92 26 0 c20 0 25 5 25 25 0 24 2 25 69 25 65 0 70
-2 73 -22z m-524 -285 c-3 -114 -4 -118 -25 -121 -19 -3 -23 1 -23 22 0 21 -5
26 -25 26 -20 0 -25 5 -25 25 0 20 5 25 25 25 33 0 35 37 3 42 -15 2 -24 11
-26 26 -3 18 1 22 22 22 21 0 26 5 26 25 0 20 5 25 25 25 l26 0 -3 -117z m952
92 c0 -20 5 -25 25 -25 20 0 25 -5 25 -25 0 -20 -5 -25 -25 -25 -18 0 -25 -5
-25 -20 0 -15 7 -20 25 -20 20 0 25 -5 25 -25 0 -20 -5 -25 -25 -25 -20 0 -25
-5 -25 -26 0 -21 -4 -25 -22 -22 -22 3 -23 7 -26 121 l-3 117 26 0 c20 0 25
-5 25 -25z m-572 -92 c3 -19 -1 -23 -22 -23 -21 0 -26 -5 -26 -25 0 -23 -4
-25 -45 -25 -41 0 -45 2 -45 25 0 20 -5 25 -25 25 -20 0 -25 5 -25 25 l0 26
93 -3 c87 -3 92 -4 95 -25z m332 2 c0 -20 -5 -25 -24 -25 -19 0 -22 -4 -18
-25 4 -24 2 -25 -47 -25 -48 0 -51 2 -51 25 0 20 -5 25 -25 25 -18 0 -25 5
-25 18 0 29 8 32 102 32 87 0 88 0 88 -25z m-423 -145 c3 -11 14 -20 24 -20
12 0 19 7 19 20 0 19 7 20 120 20 113 0 120 -1 120 -20 0 -15 7 -20 25 -20 19
0 25 5 25 21 0 15 5 20 23 17 18 -2 23 -10 25 -45 3 -40 1 -43 -22 -43 -21 0
-26 -5 -26 -25 0 -20 -5 -25 -25 -25 -20 0 -25 -5 -25 -25 0 -20 -5 -25 -25
-25 -20 0 -25 -5 -25 -25 0 -20 5 -25 25 -25 20 0 25 -5 25 -26 0 -21 -4 -25
-22 -22 -15 2 -24 11 -26 26 -5 32 -42 30 -42 -3 0 -18 5 -25 20 -25 13 0 20
-7 20 -20 0 -13 -7 -20 -20 -20 -14 0 -20 -7 -21 -22 -3 -69 -4 -73 -26 -76
-20 -3 -22 2 -25 45 -3 41 -6 48 -25 51 -15 2 -23 10 -23 22 0 12 8 20 23 22
14 2 23 11 25 26 3 18 -1 22 -22 22 -18 0 -25 -6 -28 -22 -2 -15 -10 -23 -23
-23 -13 0 -21 8 -23 23 -3 18 1 22 22 22 21 0 26 5 26 25 0 20 -5 25 -25 25
-20 0 -25 5 -25 25 0 20 -5 25 -25 25 -20 0 -25 5 -25 25 0 18 -5 25 -20 25
-17 0 -20 7 -20 45 0 39 3 45 21 45 12 0 23 -8 26 -20z m43 -530 c0 -68 1 -70
25 -70 24 0 25 2 25 70 0 68 1 70 25 70 l25 0 0 -115 0 -115 -50 0 c-47 0 -50
2 -50 25 0 18 -5 25 -20 25 -19 0 -20 7 -20 90 0 83 1 90 20 90 18 0 20 -7 20
-70z m190 0 c0 -68 1 -70 25 -70 24 0 25 2 25 70 0 68 1 70 25 70 25 0 25 -1
25 -90 0 -89 0 -90 -25 -90 -20 0 -25 -5 -25 -25 0 -23 -4 -25 -45 -25 l-45 0
0 115 c0 108 1 115 20 115 18 0 20 -7 20 -70z"/>
<path d="M2480 2955 c0 -18 5 -25 20 -25 15 0 20 7 20 25 0 18 -5 25 -20 25
-15 0 -20 -7 -20 -25z"/>
<path d="M2430 2530 c0 -15 7 -20 25 -20 18 0 25 5 25 20 0 15 -7 20 -25 20
-18 0 -25 -5 -25 -20z"/>
<path d="M2530 2530 c0 -13 7 -20 20 -20 13 0 20 7 20 20 0 13 -7 20 -20 20
-13 0 -20 -7 -20 -20z"/>
<path d="M2430 2435 c0 -20 5 -25 25 -25 20 0 25 5 25 25 0 20 -5 25 -25 25
-20 0 -25 -5 -25 -25z"/>
<path d="M2530 2435 c0 -18 5 -25 20 -25 15 0 20 7 20 25 0 18 -5 25 -20 25
-15 0 -20 -7 -20 -25z"/>
<path d="M2050 3720 c0 -13 7 -20 20 -20 13 0 20 7 20 20 0 13 -7 20 -20 20
-13 0 -20 -7 -20 -20z"/>
<path d="M2000 3455 c0 -95 0 -95 25 -95 25 0 25 0 25 95 0 95 0 95 -25 95
-25 0 -25 0 -25 -95z"/>
<path d="M2960 3435 c0 -108 1 -115 20 -115 19 0 20 7 20 115 0 108 -1 115
-20 115 -19 0 -20 -7 -20 -115z"/>
<path d="M2140 2530 c0 -15 7 -20 25 -20 18 0 25 5 25 20 0 15 -7 20 -25 20
-18 0 -25 -5 -25 -20z"/>
<path d="M2810 2530 c0 -15 7 -20 25 -20 18 0 25 5 25 20 0 15 -7 20 -25 20
-18 0 -25 -5 -25 -20z"/>
<path d="M925 1748 c-3 -7 -23 -62 -45 -122 -22 -60 -40 -113 -40 -117 0 -5
18 -9 39 -9 31 0 41 4 46 20 5 16 15 20 50 20 35 0 45 -4 50 -20 5 -16 15 -20
46 -20 25 0 39 5 38 13 0 6 -19 64 -43 127 l-43 115 -46 3 c-32 2 -49 -1 -52
-10z m74 -145 c1 -7 -10 -13 -24 -13 -29 0 -29 1 -14 55 l12 40 13 -35 c7 -19
13 -41 13 -47z"/>
<path d="M1150 1630 l0 -130 35 0 35 0 0 63 1 62 57 -63 c48 -52 62 -62 90
-62 l32 0 0 130 0 130 -35 0 -35 0 0 -60 c0 -33 -3 -60 -7 -59 -5 0 -30 27
-56 60 -42 51 -53 59 -83 59 l-34 0 0 -130z"/>
<path d="M1460 1630 l0 -130 40 0 40 0 0 58 1 57 52 -57 c46 -51 57 -58 90
-58 l38 0 -3 128 -3 127 -37 3 -38 3 0 -63 -1 -63 -57 63 c-48 52 -62 62 -89
62 l-33 0 0 -130z"/>
<path d="M1777 1754 c-4 -4 -7 -63 -7 -131 l0 -123 45 0 46 0 -3 128 -3 127
-35 3 c-20 2 -39 0 -43 -4z"/>
<path d="M1920 1631 l0 -131 40 0 40 0 0 50 0 50 45 0 45 0 0 -50 0 -50 40 0
40 0 0 130 0 130 -40 0 -40 0 0 -50 0 -50 -44 0 -45 0 -3 48 c-3 47 -3 47 -40
50 l-38 3 0 -130z"/>
<path d="M2230 1630 l0 -130 40 0 40 0 0 130 0 130 -40 0 -40 0 0 -130z"/>
<path d="M2377 1753 c-4 -3 -7 -62 -7 -130 l0 -123 111 0 110 0 -3 33 -3 32
-67 3 -68 3 0 94 0 95 -33 0 c-19 0 -37 -3 -40 -7z"/>
<path d="M2620 1630 l0 -130 105 0 105 0 0 35 0 35 -65 0 -65 0 0 95 0 95 -40
0 -40 0 0 -130z"/>
<path d="M2896 1635 c-25 -69 -46 -127 -46 -130 0 -3 18 -5 39 -5 31 0 41 4
46 20 5 16 15 20 52 20 36 0 46 -4 50 -20 4 -16 14 -20 49 -20 l43 0 -34 94
c-63 173 -58 166 -108 166 l-45 0 -46 -125z m114 -27 c0 -13 -8 -18 -25 -18
-29 0 -29 0 -13 53 l12 40 13 -29 c6 -16 12 -37 13 -46z"/>
<path d="M3140 1725 c0 -35 0 -35 45 -35 l45 0 0 -95 0 -95 40 0 40 0 0 95 0
95 40 0 c39 0 40 1 40 35 l0 35 -125 0 -125 0 0 -35z"/>
<path d="M3437 1754 c-4 -4 -7 -63 -7 -131 l0 -123 45 0 46 0 -3 128 -3 127
-35 3 c-20 2 -39 0 -43 -4z"/>
<path d="M3623 1740 c-37 -22 -50 -43 -53 -85 -5 -69 0 -87 34 -121 30 -30 40
-34 89 -34 31 0 67 4 81 10 57 21 85 125 51 189 -29 58 -139 80 -202 41z m121
-62 c34 -48 8 -118 -43 -118 -15 0 -32 5 -39 12 -18 18 -15 94 4 112 22 23 60
20 78 -6z"/>
<path d="M3890 1630 l0 -130 35 0 34 0 3 61 3 62 50 -61 c45 -54 54 -61 88
-61 l37 -1 0 130 0 130 -35 0 -35 0 0 -60 c0 -33 -3 -60 -7 -60 -5 0 -30 27
-57 60 -43 51 -55 60 -83 60 l-33 0 0 -130z"/>
<path d="M2077 1312 c-47 -52 9 -122 77 -96 17 7 22 54 6 54 -5 0 -10 -9 -10
-21 0 -16 -5 -20 -26 -17 -59 7 -56 72 2 74 42 1 45 18 3 22 -24 2 -40 -3 -52
-16z"/>
<path d="M2247 1273 c-25 -58 -26 -83 -3 -50 7 9 26 17 41 17 15 0 34 -8 41
-17 23 -33 22 -8 -3 50 -14 31 -31 57 -38 57 -7 0 -24 -26 -38 -57z m53 1 c0
-8 -7 -14 -15 -14 -15 0 -21 21 -9 33 10 9 24 -2 24 -19z"/>
<path d="M2400 1270 l0 -60 45 0 c25 0 45 5 45 10 0 6 -16 10 -35 10 l-35 0 0
50 c0 28 -4 50 -10 50 -6 0 -10 -27 -10 -60z"/>
<path d="M2540 1270 l0 -60 45 0 c25 0 45 5 45 10 0 6 -16 10 -35 10 -24 0
-35 5 -35 15 0 10 10 15 30 15 17 0 30 5 30 10 0 6 -13 10 -30 10 -20 0 -30 5
-30 15 0 10 11 15 35 15 19 0 35 5 35 10 0 6 -20 10 -45 10 l-45 0 0 -60z"/>
<path d="M2690 1271 c0 -34 4 -61 10 -61 6 0 10 6 10 14 0 26 23 30 41 8 9
-12 23 -22 29 -22 10 0 9 4 0 15 -11 13 -10 20 1 41 19 37 2 58 -50 62 l-41 3
0 -60z m75 29 c9 -15 -14 -40 -36 -40 -14 0 -19 7 -19 25 0 20 5 25 24 25 14
0 28 -5 31 -10z"/>
<path d="M2840 1325 c0 -2 9 -19 20 -37 11 -18 20 -43 20 -55 0 -13 5 -23 10
-23 6 0 10 9 10 20 0 11 11 38 25 60 28 45 18 55 -13 13 l-19 -26 -18 26 c-15
24 -35 36 -35 22z"/>
</g>
</svg>
